<svg xmlns="http://www.w3.org/2000/svg" viewBox="0 0 720 300" role="img" aria-labelledby="title desc">
  <title id="title">Unified anomaly and OOD survey</title><desc id="desc">Four related fields converge into a unified open-world AI framework.</desc>
  <defs><linearGradient id="bg3" x1="0" y1="0" x2="1" y2="1"><stop stop-color="#f7f3ff"/><stop offset="1" stop-color="#e9e0fb"/></linearGradient><linearGradient id="core" x1="0" y1="0" x2="1" y2="1"><stop stop-color="#6841c6"/><stop offset="1" stop-color="#3f2a91"/></linearGradient></defs>
  <rect width="720" height="300" rx="26" fill="url(#bg3)"/>
  <g font-family="Inter,Arial,sans-serif" font-size="20" font-weight="700" text-anchor="middle"><g transform="translate(95 48)"><rect width="150" height="58" rx="15" fill="#fff" stroke="#cfbfed" stroke-width="3"/><text x="75" y="36" fill="#17304f">Anomaly</text></g><g transform="translate(95 194)"><rect width="150" height="58" rx="15" fill="#fff" stroke="#cfbfed" stroke-width="3"/><text x="75" y="36" fill="#17304f">Novelty</text></g><g transform="translate(475 48)"><rect width="150" height="58" rx="15" fill="#fff" stroke="#cfbfed" stroke-width="3"/><text x="75" y="36" fill="#17304f">Open-set</text></g><g transform="translate(475 194)"><rect width="150" height="58" rx="15" fill="#fff" stroke="#cfbfed" stroke-width="3"/><text x="75" y="36" fill="#17304f">OOD</text></g></g>
  <g stroke="#6841c6" stroke-width="5" fill="none" stroke-linecap="round"><path d="M246 77l77 51"/><path d="M246 223l77-51"/><path d="M474 77l-77 51"/><path d="M474 223l-77-51"/></g>
  <circle cx="360" cy="150" r="76" fill="url(#core)"/><circle cx="360" cy="150" r="55" fill="none" stroke="#d9cefa" stroke-width="3" stroke-dasharray="7 8"/>
  <text x="360" y="139" fill="#fff" font-family="Inter,Arial,sans-serif" font-size="22" font-weight="800" text-anchor="middle">Reliable</text><text x="360" y="168" fill="#fff" font-family="Inter,Arial,sans-serif" font-size="22" font-weight="800" text-anchor="middle">open-world AI</text>
</svg>
