<svg xmlns="http://www.w3.org/2000/svg" viewBox="0 0 480 260" role="img" aria-labelledby="t d"><title id="t">Adaptive probabilistic matching for 3D reconstruction</title><desc id="d">Two point clouds are aligned through adaptive probability-weighted correspondences.</desc><rect width="480" height="260" rx="24" fill="#eef7ff"/><g fill="#1d4ed8" opacity=".82"><circle cx="67" cy="92" r="6"/><circle cx="91" cy="68" r="5"/><circle cx="112" cy="105" r="7"/><circle cx="72" cy="142" r="5"/><circle cx="126" cy="159" r="6"/><circle cx="157" cy="119" r="5"/><circle cx="101" cy="187" r="5"/></g><g fill="#f97316" opacity=".82"><circle cx="327" cy="73" r="6"/><circle cx="362" cy="91" r="5"/><circle cx="398" cy="111" r="7"/><circle cx="335" cy="137" r="5"/><circle cx="385" cy="157" r="6"/><circle cx="421" cy="181" r="5"/><circle cx="349" cy="191" r="5"/></g><g stroke="#7c8fb8" stroke-width="2" opacity=".65"><path d="M112 105l215-32"/><path d="M157 119l205-28"/><path d="M126 159l209-22"/><path d="M101 187l248 4"/></g><path d="M206 130h66" stroke="#172033" stroke-width="5" stroke-dasharray="7 6"/><text x="239" y="104" text-anchor="middle" font-family="Arial" font-size="13" fill="#526077">ADAPTIVE MATCHING</text></svg>
