<svg xmlns="http://www.w3.org/2000/svg" viewBox="0 0 480 260" role="img" aria-labelledby="t d"><title id="t">MobileDenseNet object detection</title><desc id="d">A dense compact neural network detects objects on a mobile phone.</desc><rect width="480" height="260" rx="24" fill="#f5f7fb"/><rect x="54" y="35" width="132" height="190" rx="24" fill="#172033"/><rect x="65" y="55" width="110" height="140" rx="9" fill="#dce8ff"/><rect x="88" y="88" width="48" height="55" rx="5" fill="none" stroke="#ff704d" stroke-width="4"/><circle cx="120" cy="210" r="6" fill="#fff"/><g fill="#2563eb"><rect x="249" y="57" width="42" height="32" rx="8"/><rect x="314" y="57" width="42" height="32" rx="8"/><rect x="379" y="57" width="42" height="32" rx="8"/><rect x="282" y="116" width="42" height="32" rx="8"/><rect x="347" y="116" width="42" height="32" rx="8"/><rect x="314" y="175" width="42" height="32" rx="8"/></g><g stroke="#91adf6" stroke-width="3"><path d="M291 73h23M356 73h23M270 89l22 27M335 89l-22 27M400 89l-22 27M324 148v27M389 148l-33 27"/></g><text x="335" y="231" text-anchor="middle" font-family="Arial" font-size="13" fill="#526077">COMPACT DENSE CONNECTIONS</text></svg>
